<?xml version="1.0" encoding="utf-8"?>
<!-- Generator: Adobe Illustrator 22.0.0, SVG Export Plug-In . SVG Version: 6.00 Build 0)  -->
<svg version="1.1" id="Layer_1" xmlns="http://www.w3.org/2000/svg" xmlns:xlink="http://www.w3.org/1999/xlink" x="0px" y="0px"
	 viewBox="0 0 89.9 52.7" style="enable-background:new 0 0 89.9 52.7;" xml:space="preserve">
<style type="text/css">
	.st0{display:none;fill:#C2B59B;}
	.st1{fill-rule:evenodd;clip-rule:evenodd;}
	.st2{display:none;}
	.st3{display:inline;}
	.st4{fill:#0F0F0F;}
</style>
<rect y="0" class="st0" width="90" height="52.7"/>
<path class="st1" d="M4.4,24.6c-0.3-0.5-0.3-1.4-0.1-1.9c0.1-0.3,0.9-0.4,1.4-0.5c0,0.5,0,0.8,0,1c-0.4,0.1-0.8,0.2-1.3,0.4
	c0.5,0.5,1.6,0,1.3,1.4C5.3,24.8,4.5,24.9,4.4,24.6z M85.6,24.6c0.3-0.5,0.3-1.4,0.1-1.9c-0.1-0.3-0.9-0.4-1.4-0.5c0,0.5,0,0.8,0,1
	c0.4,0.1,0.8,0.2,1.3,0.4c-0.5,0.5-1.6,0-1.3,1.4C84.7,24.8,85.5,24.9,85.6,24.6z M82.4,25C82.3,25,82.3,25,82.4,25
	c-2.3,0.2-2.3,0.2-2.6,2.6c-1.1,8.3-6.9,13.8-14.5,13.7c-7.2,0-12.6-4.9-14.4-12.9c-0.4-1.7-0.5-3.5-0.6-5.3c-0.1-1.3-0.2-1.7-1.4-2
	c-2.5-0.7-5.3-0.7-7.8,0c-1.1,0.3-1.3,0.7-1.4,2c-0.1,1.8-0.2,3.6-0.6,5.3c-1.8,8.1-7.2,12.9-14.4,12.9c-7.6,0-13.4-5.4-14.5-13.7
	C10,25.2,10,25.2,7.8,25c0,0-0.1,0-0.1,0c-1-0.1-1.4-0.6-1.3-1.9c0-1.1,0.7-1,1.4-1c0.1,0,0.3,0,0.4,0c0.9,0.1,1.6-0.3,2.1-1.2
	c0.2-0.4,0.5-0.9,0.7-1.3c3.4-6.4,9.1-8.6,14.9-7.9c4.4,0.5,8.2,2.6,11.3,6.1c0.8,0.9,1.7,1.2,2.8,0.8c1.8-0.7,3.6-1,5.4-0.9
	c1.6,0,3.2,0.3,4.8,0.9c1.1,0.4,2,0.2,2.8-0.8c3.1-3.5,6.9-5.6,11.3-6.1c5.9-0.7,11.5,1.5,14.9,7.9c0.2,0.4,0.5,0.9,0.7,1.3
	c0.5,0.9,1.1,1.3,2.1,1.2c0.1,0,0.3,0,0.4,0c0.7,0,1.4-0.1,1.4,1C83.7,24.4,83.4,24.9,82.4,25z M36.8,21.4c-1.1-2.9-2.9-5-5.4-6.3
	c-4-2.1-8.1-2.7-12.4-1c-5.7,2.3-8.5,7.9-7.3,14.4c1.1,5.5,4,9.1,8.8,10.8c4.9,1.7,9.4,0.7,13.2-3.1c1.9-1.8,3.3-4.8,3.6-7.4
	c-0.2,0.1-0.3,0.2-0.5,0.4c-0.1,0.3-0.2,0.6-0.3,0.9c0,0.2-0.1,0.3-0.1,0.4c-0.1,0.2-0.4,0.1-0.4-0.1c0.3-1.4,0.7-2.8,0.8-4.3
	c0-0.2,0.3-0.2,0.3,0c0,0.6,0,1.1-0.1,1.6c0.1,0,0.3,0,0.4,0C38,25.7,37.6,23.5,36.8,21.4z M71,14.1c-4.2-1.7-8.4-1.1-12.4,1
	c-2.5,1.3-4.4,3.5-5.4,6.3c-0.8,2.1-1.2,4.3-0.7,6.5c0.2,0,0.3,0,0.4,0c-0.1-0.5-0.1-1.1-0.1-1.6c0-0.2,0.3-0.2,0.3,0
	c0.1,1.5,0.6,2.8,0.8,4.3c0,0.2-0.3,0.3-0.4,0.1c-0.1-0.2-0.1-0.3-0.1-0.4c-0.1-0.3-0.2-0.6-0.3-0.9c-0.2-0.2-0.4-0.3-0.5-0.4
	c0.3,2.6,1.7,5.5,3.6,7.4c3.9,3.8,8.4,4.7,13.2,3.1c4.8-1.6,7.7-5.3,8.8-10.8C79.5,22,76.7,16.4,71,14.1z"/>
<g class="st2">
	<g class="st3">
		<path class="st4" d="M13.8,47.7L13.8,47.7c-0.1,0-0.2,0.1-0.3,0.2c-0.1,0.1-0.2,0.1-0.3,0.1c-0.1,0-0.2,0-0.3,0
			c-0.2,0-0.3,0-0.4-0.1c-0.1-0.1-0.2-0.2-0.3-0.3c-0.1-0.1-0.2-0.3-0.2-0.4c-0.1-0.2-0.1-0.3-0.1-0.5c0-0.4,0.1-0.7,0.3-0.9
			c0.2-0.2,0.5-0.3,0.8-0.3c0.2,0,0.3,0,0.5,0.1c0.1,0.1,0.3,0.2,0.4,0.3v-1c0-0.1,0-0.2,0.1-0.3c0.1-0.1,0.1-0.1,0.2-0.1
			c0.1,0,0.2,0,0.2,0.1c0.1,0.1,0.1,0.2,0.1,0.3v2.9c0,0.1,0,0.2-0.1,0.3c-0.1,0.1-0.1,0.1-0.2,0.1c-0.1,0-0.2,0-0.2-0.1
			C13.8,47.9,13.8,47.8,13.8,47.7z M12.5,46.7c0,0.2,0,0.3,0.1,0.5c0.1,0.1,0.1,0.2,0.2,0.3c0.1,0.1,0.2,0.1,0.3,0.1
			c0.1,0,0.2,0,0.3-0.1c0.1-0.1,0.2-0.1,0.2-0.3c0.1-0.1,0.1-0.3,0.1-0.5c0-0.2,0-0.3-0.1-0.4c-0.1-0.1-0.1-0.2-0.2-0.3
			c-0.1-0.1-0.2-0.1-0.3-0.1c-0.1,0-0.2,0-0.3,0.1c-0.1,0.1-0.2,0.2-0.2,0.3C12.6,46.4,12.5,46.6,12.5,46.7z"/>
		<path class="st4" d="M16.9,46.9h-1.3c0,0.1,0,0.3,0.1,0.4c0.1,0.1,0.1,0.2,0.2,0.3c0.1,0.1,0.2,0.1,0.3,0.1c0.1,0,0.2,0,0.2,0
			c0.1,0,0.1,0,0.2-0.1c0.1,0,0.1-0.1,0.2-0.1c0.1,0,0.1-0.1,0.2-0.2c0,0,0.1,0,0.1,0c0.1,0,0.1,0,0.2,0.1c0,0,0.1,0.1,0.1,0.2
			c0,0.1,0,0.1-0.1,0.2c0,0.1-0.1,0.2-0.2,0.2c-0.1,0.1-0.2,0.1-0.4,0.2c-0.1,0-0.3,0.1-0.5,0.1c-0.4,0-0.7-0.1-1-0.4
			c-0.2-0.2-0.3-0.6-0.3-1c0-0.2,0-0.4,0.1-0.5c0.1-0.2,0.1-0.3,0.3-0.4c0.1-0.1,0.2-0.2,0.4-0.3c0.2-0.1,0.3-0.1,0.5-0.1
			c0.3,0,0.5,0.1,0.7,0.2c0.2,0.1,0.3,0.2,0.4,0.4c0.1,0.2,0.1,0.3,0.1,0.5c0,0.2,0,0.3-0.1,0.3C17.2,46.9,17.1,46.9,16.9,46.9z
			 M15.6,46.5h1.2c0-0.2-0.1-0.4-0.2-0.5c-0.1-0.1-0.2-0.2-0.4-0.2c-0.2,0-0.3,0.1-0.4,0.2C15.7,46.1,15.6,46.3,15.6,46.5z"/>
		<path class="st4" d="M20.1,47.2c0,0.2,0,0.3-0.1,0.5c-0.1,0.1-0.2,0.2-0.4,0.3c-0.2,0.1-0.4,0.1-0.6,0.1c-0.2,0-0.4,0-0.6-0.1
			c-0.2-0.1-0.3-0.2-0.4-0.3c-0.1-0.1-0.1-0.2-0.1-0.3c0-0.1,0-0.1,0.1-0.2c0.1-0.1,0.1-0.1,0.2-0.1c0.1,0,0.1,0,0.2,0.1
			c0,0,0.1,0.1,0.1,0.1c0.1,0.1,0.1,0.2,0.2,0.3c0.1,0.1,0.2,0.1,0.4,0.1c0.1,0,0.2,0,0.3-0.1c0.1-0.1,0.1-0.1,0.1-0.2
			c0-0.1,0-0.2-0.1-0.2c-0.1-0.1-0.2-0.1-0.4-0.2c-0.2-0.1-0.4-0.1-0.5-0.2c-0.1-0.1-0.3-0.1-0.3-0.2c-0.1-0.1-0.1-0.2-0.1-0.4
			c0-0.1,0-0.3,0.1-0.4c0.1-0.1,0.2-0.2,0.3-0.3c0.2-0.1,0.3-0.1,0.5-0.1c0.2,0,0.3,0,0.5,0.1c0.1,0,0.2,0.1,0.3,0.1
			c0.1,0.1,0.2,0.1,0.2,0.2c0,0.1,0.1,0.1,0.1,0.2c0,0.1,0,0.1-0.1,0.2c0,0-0.1,0.1-0.2,0.1c-0.1,0-0.1,0-0.2-0.1
			c0,0-0.1-0.1-0.2-0.2c0-0.1-0.1-0.1-0.2-0.2c-0.1,0-0.2-0.1-0.3-0.1c-0.1,0-0.2,0-0.3,0.1c-0.1,0.1-0.1,0.1-0.1,0.2
			c0,0.1,0,0.1,0.1,0.2c0.1,0,0.1,0.1,0.2,0.1c0.1,0,0.2,0.1,0.4,0.1c0.2,0.1,0.4,0.1,0.5,0.2c0.1,0.1,0.2,0.1,0.3,0.2
			C20,47,20.1,47.1,20.1,47.2z"/>
		<path class="st4" d="M21,45.1c-0.1,0-0.2,0-0.2-0.1c-0.1-0.1-0.1-0.1-0.1-0.2c0-0.1,0-0.2,0.1-0.2c0.1-0.1,0.1-0.1,0.2-0.1
			c0.1,0,0.2,0,0.2,0.1c0.1,0.1,0.1,0.1,0.1,0.2c0,0.1,0,0.2-0.1,0.2C21.1,45.1,21,45.1,21,45.1z M21.3,45.8v1.9
			c0,0.1,0,0.2-0.1,0.3C21.1,48,21,48.1,21,48.1c-0.1,0-0.2,0-0.2-0.1c-0.1-0.1-0.1-0.2-0.1-0.3v-1.9c0-0.1,0-0.2,0.1-0.3
			c0.1-0.1,0.1-0.1,0.2-0.1c0.1,0,0.2,0,0.2,0.1C21.2,45.6,21.3,45.7,21.3,45.8z"/>
		<path class="st4" d="M24.3,45.9v1.9c0,0.2,0,0.4-0.1,0.6c0,0.2-0.1,0.3-0.2,0.4c-0.1,0.1-0.2,0.2-0.4,0.2C23.5,49,23.3,49,23,49
			c-0.2,0-0.4,0-0.6-0.1c-0.2-0.1-0.3-0.1-0.4-0.2c-0.1-0.1-0.1-0.2-0.1-0.3c0-0.1,0-0.1,0.1-0.2c0.1-0.1,0.1-0.1,0.2-0.1
			c0.1,0,0.2,0,0.3,0.1c0,0,0.1,0.1,0.1,0.1c0,0,0.1,0.1,0.1,0.1c0,0,0.1,0.1,0.2,0.1c0.1,0,0.1,0,0.2,0c0.2,0,0.3,0,0.4-0.1
			c0.1,0,0.2-0.1,0.2-0.2c0-0.1,0.1-0.2,0.1-0.3c0-0.1,0-0.3,0-0.5c-0.1,0.1-0.2,0.2-0.3,0.3C23.2,48,23.1,48,22.9,48
			c-0.2,0-0.4-0.1-0.6-0.2c-0.2-0.1-0.3-0.3-0.4-0.5c-0.1-0.2-0.1-0.4-0.1-0.7c0-0.2,0-0.4,0.1-0.5c0.1-0.2,0.1-0.3,0.2-0.4
			c0.1-0.1,0.2-0.2,0.3-0.2c0.1-0.1,0.3-0.1,0.4-0.1c0.2,0,0.3,0,0.5,0.1c0.1,0.1,0.3,0.2,0.4,0.3v-0.1c0-0.1,0-0.2,0.1-0.3
			c0.1-0.1,0.1-0.1,0.2-0.1c0.1,0,0.2,0,0.3,0.1C24.3,45.6,24.3,45.7,24.3,45.9z M22.5,46.7c0,0.3,0.1,0.5,0.2,0.6
			c0.1,0.1,0.3,0.2,0.4,0.2c0.1,0,0.2,0,0.3-0.1c0.1-0.1,0.2-0.1,0.2-0.3c0.1-0.1,0.1-0.3,0.1-0.4c0-0.3-0.1-0.5-0.2-0.6
			c-0.1-0.1-0.3-0.2-0.5-0.2c-0.2,0-0.3,0.1-0.4,0.2C22.5,46.2,22.5,46.4,22.5,46.7z"/>
		<path class="st4" d="M25.6,45.8L25.6,45.8c0.1-0.1,0.2-0.2,0.4-0.3c0.1-0.1,0.3-0.1,0.5-0.1c0.2,0,0.3,0,0.5,0.1
			c0.1,0.1,0.2,0.2,0.3,0.3c0,0.1,0.1,0.2,0.1,0.3c0,0.1,0,0.2,0,0.4v1.2c0,0.1,0,0.2-0.1,0.3c-0.1,0.1-0.1,0.1-0.2,0.1
			c-0.1,0-0.2,0-0.2-0.1c-0.1-0.1-0.1-0.2-0.1-0.3v-1.1c0-0.2,0-0.4-0.1-0.5c-0.1-0.1-0.2-0.2-0.4-0.2c-0.1,0-0.2,0-0.3,0.1
			c-0.1,0.1-0.2,0.2-0.2,0.3c0,0.1,0,0.3,0,0.5v0.8c0,0.1,0,0.2-0.1,0.3c-0.1,0.1-0.1,0.1-0.2,0.1c-0.1,0-0.2,0-0.2-0.1
			C25,47.9,25,47.8,25,47.7v-1.9c0-0.1,0-0.2,0.1-0.3c0.1-0.1,0.1-0.1,0.2-0.1c0.1,0,0.1,0,0.2,0c0,0,0.1,0.1,0.1,0.1
			C25.6,45.6,25.6,45.7,25.6,45.8z"/>
		<path class="st4" d="M29.8,46.9h-1.3c0,0.1,0,0.3,0.1,0.4c0.1,0.1,0.1,0.2,0.2,0.3c0.1,0.1,0.2,0.1,0.3,0.1c0.1,0,0.1,0,0.2,0
			c0.1,0,0.1,0,0.2-0.1c0.1,0,0.1-0.1,0.2-0.1c0.1,0,0.1-0.1,0.2-0.2c0,0,0.1,0,0.1,0c0.1,0,0.1,0,0.2,0.1c0,0,0.1,0.1,0.1,0.2
			c0,0.1,0,0.1-0.1,0.2c0,0.1-0.1,0.2-0.2,0.2c-0.1,0.1-0.2,0.1-0.4,0.2c-0.1,0-0.3,0.1-0.5,0.1c-0.4,0-0.7-0.1-1-0.4
			c-0.2-0.2-0.3-0.6-0.3-1c0-0.2,0-0.4,0.1-0.5c0.1-0.2,0.1-0.3,0.2-0.4c0.1-0.1,0.2-0.2,0.4-0.3c0.2-0.1,0.3-0.1,0.5-0.1
			c0.3,0,0.5,0.1,0.7,0.2c0.2,0.1,0.3,0.2,0.4,0.4c0.1,0.2,0.1,0.3,0.1,0.5c0,0.2,0,0.3-0.1,0.3C30.1,46.9,29.9,46.9,29.8,46.9z
			 M28.5,46.5h1.2c0-0.2-0.1-0.4-0.2-0.5c-0.1-0.1-0.2-0.2-0.4-0.2c-0.2,0-0.3,0.1-0.4,0.2C28.6,46.1,28.5,46.3,28.5,46.5z"/>
		<path class="st4" d="M32.6,47.7L32.6,47.7c-0.1,0-0.2,0.1-0.3,0.2c-0.1,0.1-0.2,0.1-0.3,0.1c-0.1,0-0.2,0-0.3,0
			c-0.2,0-0.3,0-0.4-0.1c-0.1-0.1-0.2-0.2-0.3-0.3c-0.1-0.1-0.2-0.3-0.2-0.4c0-0.2-0.1-0.3-0.1-0.5c0-0.4,0.1-0.7,0.3-0.9
			c0.2-0.2,0.5-0.3,0.8-0.3c0.2,0,0.3,0,0.5,0.1c0.1,0.1,0.3,0.2,0.4,0.3v-1c0-0.1,0-0.2,0.1-0.3c0.1-0.1,0.1-0.1,0.2-0.1
			c0.1,0,0.2,0,0.2,0.1c0.1,0.1,0.1,0.2,0.1,0.3v2.9c0,0.1,0,0.2-0.1,0.3c-0.1,0.1-0.1,0.1-0.2,0.1c-0.1,0-0.2,0-0.2-0.1
			C32.7,47.9,32.6,47.8,32.6,47.7z M31.4,46.7c0,0.2,0,0.3,0.1,0.5c0.1,0.1,0.1,0.2,0.2,0.3c0.1,0.1,0.2,0.1,0.3,0.1
			c0.1,0,0.2,0,0.3-0.1c0.1-0.1,0.2-0.1,0.2-0.3c0.1-0.1,0.1-0.3,0.1-0.5c0-0.2,0-0.3-0.1-0.4c-0.1-0.1-0.1-0.2-0.2-0.3
			c-0.1-0.1-0.2-0.1-0.3-0.1c-0.1,0-0.2,0-0.3,0.1c-0.1,0.1-0.2,0.2-0.2,0.3C31.4,46.4,31.4,46.6,31.4,46.7z"/>
		<path class="st4" d="M35.7,44.8v1c0.1-0.1,0.2-0.2,0.4-0.3c0.1-0.1,0.3-0.1,0.5-0.1c0.2,0,0.4,0.1,0.6,0.2
			c0.2,0.1,0.3,0.3,0.4,0.4c0.1,0.2,0.1,0.4,0.1,0.7c0,0.2,0,0.4-0.1,0.5c-0.1,0.2-0.1,0.3-0.2,0.4c-0.1,0.1-0.2,0.2-0.3,0.3
			c-0.1,0.1-0.3,0.1-0.4,0.1c-0.1,0-0.2,0-0.3,0c-0.1,0-0.2-0.1-0.2-0.1c-0.1,0-0.1-0.1-0.2-0.1c0,0-0.1-0.1-0.2-0.2v0.1
			c0,0.1,0,0.2-0.1,0.3c-0.1,0.1-0.1,0.1-0.2,0.1c-0.1,0-0.2,0-0.2-0.1c-0.1-0.1-0.1-0.2-0.1-0.3v-2.8c0-0.1,0-0.2,0.1-0.3
			c0.1-0.1,0.1-0.1,0.2-0.1c0.1,0,0.2,0,0.2,0.1C35.7,44.6,35.7,44.7,35.7,44.8z M35.8,46.7c0,0.3,0.1,0.5,0.2,0.6
			c0.1,0.1,0.3,0.2,0.5,0.2c0.2,0,0.3-0.1,0.4-0.2c0.1-0.1,0.2-0.3,0.2-0.6c0-0.2,0-0.3-0.1-0.4c0-0.1-0.1-0.2-0.2-0.3
			c-0.1-0.1-0.2-0.1-0.3-0.1c-0.1,0-0.2,0-0.3,0.1c-0.1,0.1-0.2,0.2-0.2,0.3C35.8,46.4,35.8,46.6,35.8,46.7z"/>
		<path class="st4" d="M38.7,48.1l0.1-0.1L38,46c0-0.1-0.1-0.2-0.1-0.3c0-0.1,0-0.1,0-0.2c0,0,0.1-0.1,0.1-0.1c0,0,0.1,0,0.2,0
			c0.1,0,0.2,0,0.2,0.1c0,0.1,0.1,0.1,0.1,0.3l0.6,1.6l0.5-1.5c0-0.1,0.1-0.2,0.1-0.3c0-0.1,0.1-0.1,0.1-0.1c0,0,0.1,0,0.2,0
			c0,0,0.1,0,0.1,0c0,0,0.1,0.1,0.1,0.1c0,0,0,0.1,0,0.1c0,0,0,0.1,0,0.1c0,0.1,0,0.1-0.1,0.2l-0.8,2.2c-0.1,0.2-0.1,0.3-0.2,0.5
			c-0.1,0.1-0.2,0.2-0.3,0.3C38.8,49,38.6,49,38.4,49c-0.2,0-0.3,0-0.4-0.1c-0.1,0-0.1-0.1-0.1-0.2c0-0.1,0-0.1,0.1-0.2
			c0,0,0.1-0.1,0.2-0.1c0,0,0.1,0,0.1,0c0,0,0.1,0,0.1,0c0.1,0,0.1,0,0.2,0c0,0,0.1-0.1,0.1-0.1C38.6,48.3,38.7,48.2,38.7,48.1z"/>
	</g>
	<g class="st3">
		<path class="st4" d="M50.8,45.5h0.2v-0.2c0-0.2,0-0.4,0.1-0.5c0-0.1,0.1-0.2,0.3-0.3c0.1-0.1,0.3-0.1,0.5-0.1
			c0.4,0,0.6,0.1,0.6,0.3c0,0.1,0,0.1-0.1,0.2c0,0-0.1,0.1-0.1,0.1c0,0-0.1,0-0.1,0c-0.1,0-0.1,0-0.2,0c-0.1,0-0.2,0-0.2,0.1
			c0,0.1,0,0.2,0,0.3v0.2h0.2c0.2,0,0.4,0.1,0.4,0.2c0,0.1,0,0.2-0.1,0.2c-0.1,0-0.2,0-0.3,0h-0.2v1.7c0,0.1,0,0.2-0.1,0.3
			c-0.1,0.1-0.1,0.1-0.2,0.1c-0.1,0-0.2,0-0.2-0.1c-0.1-0.1-0.1-0.2-0.1-0.3v-1.7h-0.2c-0.1,0-0.2,0-0.2-0.1c-0.1,0-0.1-0.1-0.1-0.2
			C50.4,45.5,50.5,45.5,50.8,45.5z"/>
		<path class="st4" d="M53.1,47.1v0.5c0,0.1,0,0.2-0.1,0.3c-0.1,0.1-0.1,0.1-0.2,0.1c-0.1,0-0.2,0-0.2-0.1c-0.1-0.1-0.1-0.2-0.1-0.3
			v-1.8c0-0.3,0.1-0.4,0.3-0.4c0.1,0,0.2,0,0.2,0.1c0,0.1,0.1,0.2,0.1,0.3c0.1-0.1,0.2-0.2,0.2-0.3c0.1-0.1,0.2-0.1,0.3-0.1
			c0.1,0,0.3,0,0.4,0.1c0.1,0.1,0.2,0.2,0.2,0.3c0,0.1,0,0.1-0.1,0.2C54.1,46,54,46.1,54,46.1c0,0-0.1,0-0.2,0c-0.1,0-0.2,0-0.2,0
			c-0.1,0-0.2,0-0.2,0.1c-0.1,0-0.1,0.1-0.1,0.2c0,0.1-0.1,0.2-0.1,0.4C53.1,46.8,53.1,46.9,53.1,47.1z"/>
		<path class="st4" d="M56.3,46.9H55c0,0.1,0,0.3,0.1,0.4c0.1,0.1,0.1,0.2,0.2,0.3c0.1,0.1,0.2,0.1,0.3,0.1c0.1,0,0.1,0,0.2,0
			c0.1,0,0.1,0,0.2-0.1c0.1,0,0.1-0.1,0.2-0.1c0.1,0,0.1-0.1,0.2-0.2c0,0,0.1,0,0.1,0c0.1,0,0.1,0,0.2,0.1c0,0,0.1,0.1,0.1,0.2
			c0,0.1,0,0.1-0.1,0.2c0,0.1-0.1,0.2-0.2,0.2c-0.1,0.1-0.2,0.1-0.4,0.2c-0.1,0-0.3,0.1-0.5,0.1c-0.4,0-0.7-0.1-1-0.4
			c-0.2-0.2-0.3-0.6-0.3-1c0-0.2,0-0.4,0.1-0.5c0.1-0.2,0.1-0.3,0.3-0.4c0.1-0.1,0.2-0.2,0.4-0.3c0.2-0.1,0.3-0.1,0.5-0.1
			c0.3,0,0.5,0.1,0.7,0.2c0.2,0.1,0.3,0.2,0.4,0.4c0.1,0.2,0.1,0.3,0.1,0.5c0,0.2,0,0.3-0.1,0.3C56.6,46.9,56.4,46.9,56.3,46.9z
			 M55,46.5h1.2c0-0.2-0.1-0.4-0.2-0.5c-0.1-0.1-0.2-0.2-0.4-0.2c-0.2,0-0.3,0.1-0.4,0.2C55.1,46.1,55,46.3,55,46.5z"/>
		<path class="st4" d="M59.2,46.9h-1.3c0,0.1,0,0.3,0.1,0.4c0.1,0.1,0.1,0.2,0.2,0.3c0.1,0.1,0.2,0.1,0.3,0.1c0.1,0,0.1,0,0.2,0
			c0.1,0,0.1,0,0.2-0.1c0.1,0,0.1-0.1,0.2-0.1c0.1,0,0.1-0.1,0.2-0.2c0,0,0.1,0,0.1,0c0.1,0,0.1,0,0.2,0.1c0,0,0.1,0.1,0.1,0.2
			c0,0.1,0,0.1-0.1,0.2c0,0.1-0.1,0.2-0.2,0.2c-0.1,0.1-0.2,0.1-0.4,0.2c-0.1,0-0.3,0.1-0.5,0.1c-0.4,0-0.7-0.1-1-0.4
			c-0.2-0.2-0.3-0.6-0.3-1c0-0.2,0-0.4,0.1-0.5c0.1-0.2,0.1-0.3,0.3-0.4c0.1-0.1,0.2-0.2,0.4-0.3c0.2-0.1,0.3-0.1,0.5-0.1
			c0.3,0,0.5,0.1,0.7,0.2c0.2,0.1,0.3,0.2,0.4,0.4c0.1,0.2,0.1,0.3,0.1,0.5c0,0.2,0,0.3-0.1,0.3C59.5,46.9,59.3,46.9,59.2,46.9z
			 M57.9,46.5h1.2c0-0.2-0.1-0.4-0.2-0.5c-0.1-0.1-0.2-0.2-0.4-0.2c-0.2,0-0.3,0.1-0.4,0.2C58,46.1,57.9,46.3,57.9,46.5z"/>
		<path class="st4" d="M60.8,45.8L60.8,45.8c0.1-0.1,0.2-0.2,0.4-0.3c0.1-0.1,0.3-0.1,0.4-0.1c0.2,0,0.4,0.1,0.6,0.2
			c0.2,0.1,0.3,0.3,0.4,0.5c0.1,0.2,0.1,0.4,0.1,0.7c0,0.2,0,0.4-0.1,0.6c-0.1,0.2-0.1,0.3-0.2,0.4c-0.1,0.1-0.2,0.2-0.3,0.3
			c-0.1,0.1-0.3,0.1-0.4,0.1c-0.2,0-0.3,0-0.5-0.1c-0.1-0.1-0.2-0.2-0.4-0.3v1c0,0.3-0.1,0.4-0.3,0.4c-0.1,0-0.2,0-0.2-0.1
			c0-0.1-0.1-0.2-0.1-0.3v-2.8c0-0.1,0-0.2,0.1-0.3c0.1-0.1,0.1-0.1,0.2-0.1c0.1,0,0.2,0,0.2,0.1C60.8,45.6,60.8,45.7,60.8,45.8z
			 M62.1,46.7c0-0.2,0-0.3-0.1-0.4c-0.1-0.1-0.1-0.2-0.2-0.3c-0.1-0.1-0.2-0.1-0.3-0.1c-0.2,0-0.3,0.1-0.5,0.2
			c-0.1,0.1-0.2,0.3-0.2,0.6c0,0.3,0.1,0.5,0.2,0.6c0.1,0.1,0.3,0.2,0.5,0.2c0.1,0,0.2,0,0.3-0.1c0.1-0.1,0.2-0.2,0.2-0.3
			C62,47,62.1,46.9,62.1,46.7z"/>
		<path class="st4" d="M63.6,45.1c-0.1,0-0.2,0-0.2-0.1c-0.1-0.1-0.1-0.1-0.1-0.2c0-0.1,0-0.2,0.1-0.2c0.1-0.1,0.1-0.1,0.2-0.1
			c0.1,0,0.2,0,0.2,0.1c0.1,0.1,0.1,0.1,0.1,0.2c0,0.1,0,0.2-0.1,0.2C63.7,45.1,63.7,45.1,63.6,45.1z M63.9,45.8v1.9
			c0,0.1,0,0.2-0.1,0.3c-0.1,0.1-0.1,0.1-0.2,0.1c-0.1,0-0.2,0-0.2-0.1c-0.1-0.1-0.1-0.2-0.1-0.3v-1.9c0-0.1,0-0.2,0.1-0.3
			c0.1-0.1,0.1-0.1,0.2-0.1c0.1,0,0.2,0,0.2,0.1C63.9,45.6,63.9,45.7,63.9,45.8z"/>
		<path class="st4" d="M66.2,47.8l-0.6-0.9l-0.4,0.3v0.5c0,0.1,0,0.2-0.1,0.3c-0.1,0.1-0.1,0.1-0.2,0.1c-0.1,0-0.2,0-0.2-0.1
			c-0.1-0.1-0.1-0.2-0.1-0.3v-2.8c0-0.1,0-0.3,0.1-0.3c0.1-0.1,0.1-0.1,0.2-0.1c0.1,0,0.2,0,0.2,0.1c0.1,0.1,0.1,0.2,0.1,0.3v1.6
			l0.7-0.8c0.1-0.1,0.2-0.2,0.2-0.2c0,0,0.1-0.1,0.2-0.1c0.1,0,0.1,0,0.2,0.1c0.1,0.1,0.1,0.1,0.1,0.2c0,0.1-0.1,0.2-0.3,0.4
			l-0.3,0.3l0.7,1c0,0.1,0.1,0.1,0.1,0.2c0,0,0,0.1,0,0.1c0,0.1,0,0.2-0.1,0.2c-0.1,0.1-0.1,0.1-0.2,0.1c-0.1,0-0.1,0-0.2-0.1
			C66.3,47.9,66.3,47.9,66.2,47.8z"/>
		<path class="st4" d="M67.8,48.1c-0.1,0-0.2,0-0.3-0.1c-0.1-0.1-0.1-0.2-0.1-0.3c0-0.1,0-0.2,0.1-0.2c0.1-0.1,0.2-0.1,0.3-0.1
			c0.1,0,0.2,0,0.3,0.1c0.1,0.1,0.1,0.2,0.1,0.2c0,0.1,0,0.2-0.1,0.3C68,48,67.9,48.1,67.8,48.1z"/>
		<path class="st4" d="M71.2,47.2c0,0.1,0,0.2-0.1,0.3c0,0.1-0.1,0.2-0.2,0.3c-0.1,0.1-0.2,0.1-0.4,0.2C70.4,48,70.2,48,70.1,48
			c-0.4,0-0.7-0.1-0.9-0.4c-0.2-0.2-0.3-0.5-0.3-0.9c0-0.3,0.1-0.5,0.2-0.7c0.1-0.2,0.3-0.4,0.4-0.5c0.2-0.1,0.4-0.2,0.7-0.2
			c0.2,0,0.3,0,0.5,0.1c0.1,0,0.3,0.1,0.4,0.2c0.1,0.1,0.2,0.2,0.2,0.2c0.1,0.1,0.1,0.2,0.1,0.2c0,0.1,0,0.1-0.1,0.2
			c-0.1,0.1-0.1,0.1-0.2,0.1c-0.1,0-0.1,0-0.1,0c0,0-0.1-0.1-0.1-0.1c-0.1-0.1-0.2-0.2-0.2-0.3c-0.1-0.1-0.2-0.1-0.3-0.1
			c-0.2,0-0.3,0.1-0.5,0.2c-0.1,0.2-0.2,0.4-0.2,0.6c0,0.1,0,0.2,0,0.3c0,0.1,0.1,0.2,0.1,0.3c0.1,0.1,0.1,0.1,0.2,0.2
			c0.1,0,0.2,0.1,0.3,0.1c0.1,0,0.2,0,0.3-0.1c0.1-0.1,0.2-0.2,0.2-0.3c0-0.1,0.1-0.1,0.1-0.2c0,0,0.1-0.1,0.2-0.1
			c0.1,0,0.1,0,0.2,0.1C71.2,47.1,71.2,47.2,71.2,47.2z"/>
		<path class="st4" d="M74.2,46.7c0,0.2,0,0.4-0.1,0.5c-0.1,0.2-0.1,0.3-0.3,0.4c-0.1,0.1-0.3,0.2-0.4,0.3c-0.2,0.1-0.3,0.1-0.5,0.1
			c-0.2,0-0.4,0-0.5-0.1c-0.2-0.1-0.3-0.2-0.4-0.3c-0.1-0.1-0.2-0.3-0.3-0.4c-0.1-0.2-0.1-0.3-0.1-0.5c0-0.2,0-0.4,0.1-0.5
			c0.1-0.2,0.1-0.3,0.3-0.4c0.1-0.1,0.2-0.2,0.4-0.3c0.2-0.1,0.3-0.1,0.5-0.1c0.2,0,0.4,0,0.5,0.1c0.2,0.1,0.3,0.2,0.4,0.3
			c0.1,0.1,0.2,0.3,0.3,0.4C74.2,46.4,74.2,46.5,74.2,46.7z M73.6,46.7c0-0.3-0.1-0.5-0.2-0.6c-0.1-0.1-0.3-0.2-0.5-0.2
			c-0.1,0-0.2,0-0.3,0.1c-0.1,0.1-0.2,0.2-0.2,0.3c-0.1,0.1-0.1,0.3-0.1,0.5c0,0.2,0,0.3,0.1,0.4c0,0.1,0.1,0.2,0.2,0.3
			c0.1,0.1,0.2,0.1,0.3,0.1c0.2,0,0.4-0.1,0.5-0.2C73.5,47.2,73.6,47,73.6,46.7z"/>
		<path class="st4" d="M76.9,46.8v0.9c0,0.1,0,0.2-0.1,0.3c-0.1,0.1-0.1,0.1-0.2,0.1c-0.1,0-0.2,0-0.2-0.1c-0.1-0.1-0.1-0.2-0.1-0.3
			v-1c0-0.2,0-0.3,0-0.4c0-0.1,0-0.2-0.1-0.2c0-0.1-0.1-0.1-0.2-0.1c-0.2,0-0.4,0.1-0.4,0.2c-0.1,0.1-0.1,0.4-0.1,0.6v0.9
			c0,0.1,0,0.2-0.1,0.3c-0.1,0.1-0.1,0.1-0.2,0.1c-0.1,0-0.2,0-0.2-0.1c-0.1-0.1-0.1-0.2-0.1-0.3v-1.9c0-0.1,0-0.2,0.1-0.3
			c0.1-0.1,0.1-0.1,0.2-0.1c0.1,0,0.2,0,0.2,0.1c0.1,0.1,0.1,0.1,0.1,0.2v0.1c0.1-0.1,0.2-0.2,0.4-0.3c0.1-0.1,0.3-0.1,0.4-0.1
			c0.2,0,0.3,0,0.4,0.1c0.1,0.1,0.2,0.2,0.3,0.3c0.1-0.1,0.2-0.2,0.4-0.3c0.1-0.1,0.3-0.1,0.4-0.1c0.2,0,0.3,0,0.5,0.1
			c0.1,0.1,0.2,0.2,0.3,0.3c0.1,0.1,0.1,0.3,0.1,0.6v1.3c0,0.1,0,0.2-0.1,0.3c-0.1,0.1-0.1,0.1-0.2,0.1c-0.1,0-0.2,0-0.2-0.1
			c-0.1-0.1-0.1-0.2-0.1-0.3v-1.1c0-0.1,0-0.2,0-0.3c0-0.1,0-0.2-0.1-0.2c-0.1-0.1-0.1-0.1-0.2-0.1c-0.1,0-0.2,0-0.2,0.1
			C77.1,46,77,46.1,77,46.2C76.9,46.3,76.9,46.5,76.9,46.8z"/>
	</g>
	<g class="st3">
		<path class="st4" d="M45.6,43.7c0,0,0-0.1,0-0.1c0.2,0,0.4-0.3,0.3-0.5c-0.1-0.2-0.4-0.2-0.6,0c-0.1,0.2,0,0.5,0.2,0.5
			c0,0,0,0.1,0,0.1c-0.3,0-0.7,0.1-0.9,0.3c0,0.1,0.1,0.2,0.1,0.2c0.6-0.2,1.2-0.2,1.8-0.1c0-0.1,0-0.2,0.1-0.2
			C46.2,43.8,45.9,43.7,45.6,43.7z"/>
		<path class="st4" d="M48.9,44.6c-0.1,0-0.1,0.2-0.1,0.2c-0.1,0.1-0.1,0.2-0.1,0.4c0,0.1-0.1,0.1-0.2,0.1c-0.1-0.1-0.2-0.2-0.3-0.3
			v0c-0.1-0.1-0.2-0.2-0.4-0.3c-0.1,0.1-0.2,0.2-0.3,0.3c0.2,0.2,0.4,0.4,0.5,0.7c0.1,0.2,0.2,0.4,0.3,0.6c0.2-0.1,0.3-0.2,0.5-0.3
			c-0.1-0.2-0.2-0.4-0.3-0.6c0.1,0,0.2-0.1,0.2-0.2c0-0.1,0-0.2,0-0.3c0.1,0.1,0.3,0,0.3-0.2C49.3,44.7,49.1,44.5,48.9,44.6z"/>
		<path class="st4" d="M48,45.8c-0.2-0.4-0.4-0.7-0.8-1c-0.4-0.3-0.8-0.5-1.3-0.5c-0.6,0-1.3,0.1-1.8,0.3c-0.5,0.2-1,0.7-1.2,1.2
			c-0.2,0.5-0.2,1.1-0.1,1.6c0.6,0.1,1.2,0.3,1.7,0.3c0.6,0,1.2,0,1.7,0c0.8-0.1,1.6-0.4,2.3-0.8C48.5,46.9,48.4,46.4,48,45.8z
			 M45.2,46.5c-0.1,0.2-0.3,0.3-0.4,0.3c-0.3,0.1-0.7,0-1-0.2c-0.2-0.2-0.3-0.4-0.2-0.7c0-0.3,0.2-0.6,0.5-0.8
			c0.2-0.1,0.5-0.1,0.7-0.1c0.1,0,0.2,0.1,0.3,0.1c0.2,0.1,0.3,0.3,0.4,0.5C45.4,46,45.4,46.3,45.2,46.5z M47.6,46
			c0,0.3-0.3,0.5-0.6,0.5c-0.2,0-0.3-0.1-0.4-0.2c-0.1-0.1-0.1-0.2-0.2-0.3c0-0.3,0.2-0.6,0.4-0.6c0.1,0,0.2,0,0.4,0
			C47.5,45.4,47.7,45.7,47.6,46z"/>
		<path class="st4" d="M42.9,45c-0.2,0.1-0.4,0.3-0.6,0.6c0-0.1-0.1-0.2-0.1-0.3c0,0-0.1,0-0.1,0c-0.1,0-0.1,0-0.2,0
			c0.1-0.1,0-0.2-0.1-0.3c-0.1-0.1-0.3,0-0.3,0.1c0,0.1,0.1,0.3,0.2,0.3c0.1,0.1,0.2,0.1,0.3,0.1c0.1,0.1,0.1,0.2,0.2,0.3
			c-0.1,0.2-0.2,0.5-0.2,0.8c0.2,0.1,0.3,0.1,0.5,0.2c0-0.2,0-0.3,0.1-0.5c0.1-0.4,0.3-0.7,0.5-1C43,45.1,42.9,45.1,42.9,45z"/>
		<path class="st4" d="M46.6,47.8C46,48,45.4,48,44.8,48c-0.4,0-0.8-0.1-1.2-0.1c-0.3-0.1-0.6-0.1-0.8-0.2c0,0.4,0.2,0.7,0.4,1
			c0.2,0.3,0.6,0.7,1,0.8c0.3,0.1,0.7,0.2,1.3,0.2c0.5,0,1.1-0.1,1.5-0.3c0.3-0.1,0.6-0.3,0.8-0.5c0.2-0.2,0.4-0.4,0.5-0.7
			c0.1-0.2,0.2-0.7,0.2-0.9C47.9,47.4,47.3,47.7,46.6,47.8z"/>
	</g>
</g>
</svg>
